# xmcd
#
# Track frame offsets:
#	150
#	23890
#	47915
#	77200
#	104115
#	128635
#	150660
#	170235
#	196335
#	221650
#	249972
#	288902
#	311955
#
# Disc length: 4502
#
# Revision: 5
# Processed by: cddbd v1.5.1PL0 Copyright (c) Steve Scherf et al.
# Submitted via: EasyCDDAExtractor 7.1.2.1
# Normalized: r4:DSETVAR1
#
DISCID=bf11940d
DTITLE=Various Artist - Clivilles and Cole Greatest Remixes - Volume 1
DYEAR=1992
DGENRE=Dance
TTITLE0=C&C Music Factory - C&C Music Factory MTV Medley
TTITLE1=The Cover Girls - Because Of You
TTITLE2=Lydia Lee Love - Don't Take Your Love Away
TTITLE3=Seduction - Two To Make It Right
TTITLE4=Clivilles and Cole - Pride (In The Name Of Love) (Techno House Version)
TTITLE5=Lisa Lisa And Cult Jam - Let The Beat Hit 'Em
TTITLE6=Clivilles and Cole - Mind Your Business
TTITLE7=David Cole - You Take My Breath Away
TTITLE8=Clivilles and Cole - A Deeper Love
TTITLE9=Chaka Khan - Clouds
TTITLE10=Billy - True Love
TTITLE11=Sandee - Notice Me
TTITLE12=Two Puerto Ricans - Do It Properly
EXTD=
EXTT0=
EXTT1=
EXTT2=
EXTT3=
EXTT4=
EXTT5=
EXTT6=
EXTT7=
EXTT8=
EXTT9=
EXTT10=
EXTT11=
EXTT12=
PLAYORDER=
